# xmcd
#
# Track frame offsets:
#	150
#	20025
#	34350
#	50250
#	65103
#	87228
#	99678
#	116030
#	131480
#	146555
#	163283
#	179108
#	197408
#	213233
#	228460
#	245860
#
# Disc length: 3473 seconds
#
# Revision: 4
# Processed by: cddbd v1.5.2PL0 Copyright (c) Steve Scherf et al.
# Submitted via: EasyCDDAExtractor 15.3.0.1
#
DISCID=f80d8f10
DTITLE=Lucero - 16 Kilates Musicales
DYEAR=1994
DGENRE=Latin
TTITLE0=Veleta
TTITLE1=Millones Mejor Que Tu
TTITLE2=Tanto
TTITLE3=Cuando Llega El Amor
TTITLE4=Tu Amiga Fiel
TTITLE5=Llorar
TTITLE6=Ya No
TTITLE7=Caso Perdido
TTITLE8=Sobrevivire
TTITLE9=Vete Con Ella
TTITLE10=Cuentame
TTITLE11=Electricidad
TTITLE12=No Me Hablen De El
TTITLE13=El Numero Uno
TTITLE14=Corazon A La Deriva
TTITLE15=Tu Desden
EXTD=\n\nYEAR: 2001  ID3G:  86
EXTT0=
EXTT1=
EXTT2=
EXTT3=
EXTT4=
EXTT5=
EXTT6=
EXTT7=
EXTT8=
EXTT9=
EXTT10=
EXTT11=
EXTT12=
EXTT13=
EXTT14=
EXTT15=
PLAYORDER=
